<svg xmlns="http://www.w3.org/2000/svg" version="1.1" viewBox="26.19 14.2 92.87 86.52">
<sodipodiNamedview bordercolor="#666666" borderopacity="1.0" pagecolor="#ffffff" showgrid="false"/>
<metadata>
<rdfRDF>
<ccWork>
<dcFormat>image/svg+xml</dcFormat>
<dcType/>
<dcTitle/>
</ccWork>
</rdfRDF>
</metadata>
<g fill="none" stroke="#000">
<path transform="scale(.26458)" d="m274.21 131.43a88.571 87.143 0 0 0-88.496 87.145 88.571 87.143 0 0 0 88.57 87.143 88.571 87.143 0 0 0 88.572-87.143 88.571 87.143 0 0 0-88.572-87.145 88.571 87.143 0 0 0-0.07422 0z" stroke-width="11.206"/>
<path d="m40.358 26.727 10.691 10.156" stroke-width="5"/>
<path d="m28.741 69.881 14.413-4.2558" stroke-width="5.0958"/>
<path d="m59.712 98.177 3.5208-14.61" stroke-width="5.0958"/>
<path d="m103.8 90.436-10.892-10.354" stroke-width="5.0958"/>
<path d="m116.52 45.981-14.413 4.2558" stroke-width="5.0958"/>
<path d="m83.278 16.749-3.5208 14.61" stroke-width="5.0958"/>
</g>
</svg>